<svg xmlns="http://www.w3.org/2000/svg" viewBox="0 0 160 150" aria-hidden="true"><style>@keyframes rotate {
  to {
    transform: rotate(360deg);
  }
}
@keyframes piston {
  50% {
    transform: translateY(10px);
  }
}
@keyframes pump {
  0%,
  100% {
    transform: rotate(-9deg);
  }
  50% {
    transform: rotate(10deg);
  }
}
@keyframes steam {
  0% {
    transform: translateY(3px);
    opacity: 0;
  }
  30% {
    opacity: 0.8;
  }
  100% {
    transform: translateY(-17px);
    opacity: 0;
  }
}
@keyframes breathe {
  50% {
    opacity: 0.65;
  }
}
@keyframes wing {
  50% {
    transform: scaleY(0.45);
  }
}
@keyframes belt {
  to {
    stroke-dashoffset: -16;
  }
}
@keyframes hiveGlow {
  50% {
    fill: #b78035;
  }
}
@keyframes flowerSway {
  50% {
    transform: rotate(5deg);
  }
}
.gear {
  animation: rotate 4s linear infinite;
}
.wheel {
  animation: rotate 9s linear infinite;
}
.piston {
  animation: piston 1.8s ease-in-out infinite;
}
.pumpArm {
  animation: pump 2s ease-in-out infinite;
}
.steam {
  animation: steam 2.3s ease-out infinite;
}
.breathe {
  animation: breathe 2.6s ease-in-out infinite;
}
.wing {
  animation: wing 0.13s linear infinite;
  transform-box: fill-box;
  transform-origin: center;
}
.beltMotion {
  animation: belt 1s linear infinite;
}
.hiveGlow {
  animation: hiveGlow 2.4s ease-in-out infinite;
}
.flowerSway {
  animation: flowerSway 3.6s ease-in-out infinite;
}
@media(prefers-reduced-motion:reduce){*{animation:none!important}}</style><defs><linearGradient id="gold-boiler" x2=".6" y2="1"><stop stop-color="#f5df93"></stop><stop offset="1" stop-color="#d9ac58"></stop></linearGradient><linearGradient id="wax-boiler" x2=".8" y2="1"><stop stop-color="#e8c472"></stop><stop offset="1" stop-color="#ba8645"></stop></linearGradient></defs><ellipse cx="80" cy="130" rx="59" ry="16" fill="#34543a" opacity=".22"></ellipse><path d="m18 120 59 25 66-27-59-23Z" fill="#a39565"></path><path d="m18 115 59 25 66-27-59-22Z" fill="#c8bd86" stroke="#a99a69" stroke-width="1.5"></path><g><g><path d="M42.5 126v9q39.5 18 79 0v-9Z" fill="url(#wax-boiler)" stroke="#ac793d" stroke-width="1.5"></path><ellipse cx="82" cy="126" rx="39.5" ry="15.8" fill="url(#gold-boiler)" stroke="#bc8e48" stroke-width="1.4"></ellipse></g><g><path d="M42.5 115v9q39.5 18 79 0v-9Z" fill="url(#wax-boiler)" stroke="#ac793d" stroke-width="1.5"></path><ellipse cx="82" cy="115" rx="39.5" ry="15.8" fill="url(#gold-boiler)" stroke="#bc8e48" stroke-width="1.4"></ellipse></g></g><path d="M47 105V65q34-27 68 0v40q-34 23-68 0Z" fill="#b37d57" stroke="#7e6146" stroke-width="3"></path><ellipse cx="81" cy="64" rx="34" ry="15" fill="#d2b17d"></ellipse><path d="M48 80q33 22 66 0M48 98q33 22 66 0" stroke="#a5b6a0" stroke-width="6"></path><path d="M104 54V29h16v27" fill="#8d9f8b" stroke="#617c6b" stroke-width="3"></path><ellipse cx="77" cy="102" rx="14" ry="10" fill="#755642"></ellipse></svg>